<?xml version="1.0" standalone="no"?>
<!DOCTYPE svg PUBLIC "-//W3C//DTD SVG 20010904//EN"
 "http://www.w3.org/TR/2001/REC-SVG-20010904/DTD/svg10.dtd">
<svg version="1.0" xmlns="http://www.w3.org/2000/svg"
 width="331.000000pt" height="151.000000pt" viewBox="0 0 331.000000 151.000000"
 preserveAspectRatio="xMidYMid meet">

<g transform="translate(0.000000,151.000000) scale(0.100000,-0.100000)"
fill="#000000" stroke="none">
<path d="M1696 1080 c-93 -114 -99 -120 -134 -120 -35 1 -46 -9 -187 -155
l-150 -156 -135 115 -135 116 -50 -53 c-28 -28 -91 -97 -141 -151 l-91 -99
-89 -8 c-49 -4 -89 -8 -90 -8 -4 -3 -358 -394 -381 -421 -15 -19 72 56 194
166 l223 201 61 7 c34 3 74 6 90 6 22 0 52 25 150 125 68 69 128 125 133 125
6 0 31 -21 57 -46 l47 -46 -23 -52 c-20 -45 -45 -186 -45 -254 0 -24 -3 -27
509 441 l194 178 31 -38 c31 -37 66 -114 66 -144 0 -9 -25 -40 -55 -68 -41
-39 -69 -79 -105 -152 -28 -54 -50 -101 -50 -104 0 -2 42 18 93 45 l93 50 260
-130 c142 -71 264 -130 270 -130 7 0 54 20 105 44 l93 44 368 -184 c202 -101
368 -182 368 -180 0 2 -66 57 -147 123 -340 274 -481 388 -523 424 l-45 39
-52 -52 c-33 -32 -56 -49 -62 -43 -5 6 -142 156 -306 335 -163 179 -300 326
-304 328 -5 1 -52 -51 -105 -118z"/>
</g>
</svg>
